<?xml version="1.0" standalone="no"?>
<!DOCTYPE svg PUBLIC "-//W3C//DTD SVG 20010904//EN"
 "http://www.w3.org/TR/2001/REC-SVG-20010904/DTD/svg10.dtd">
<svg version="1.0" xmlns="http://www.w3.org/2000/svg"
 width="225.000000pt" height="172.000000pt" viewBox="0 0 225.000000 172.000000"
 preserveAspectRatio="xMidYMid meet">

<g transform="translate(0.000000,172.000000) scale(0.100000,-0.100000)"
fill="#000000" stroke="none">
<path d="M0 1199 l0 -520 22 15 c12 9 37 16 55 16 26 0 33 4 33 19 0 36 71
159 121 210 104 106 210 151 359 151 150 0 259 -48 366 -158 48 -50 108 -163
119 -225 7 -37 8 -38 48 -35 39 3 40 4 54 57 40 160 184 304 348 347 64 18
196 18 260 0 154 -41 282 -158 337 -308 20 -55 22 -58 54 -58 21 0 42 -8 54
-20 20 -20 20 -20 20 505 l0 525 -982 0 -982 0 44 -45 c178 -181 485 -295 795
-295 151 0 266 19 411 68 137 47 237 103 344 194 63 54 84 67 91 57 17 -27 88
-255 109 -354 27 -126 50 -292 50 -369 l0 -60 -50 56 c-138 155 -366 225 -564
173 -148 -39 -289 -149 -357 -279 l-37 -70 -32 65 c-21 41 -58 89 -104 134
-116 115 -237 165 -398 165 -162 0 -278 -49 -401 -171 l-78 -78 6 72 c22 257
83 530 160 720 7 16 -4 17 -134 17 l-141 0 0 -521z"/>
<path d="M505 966 c-266 -65 -381 -376 -220 -595 79 -107 185 -156 324 -149
106 5 177 35 248 106 214 215 104 577 -195 641 -64 13 -92 13 -157 -3z m190
-256 c105 -102 39 -270 -105 -270 -136 0 -207 154 -118 256 41 47 61 54 131
51 50 -3 62 -8 92 -37z"/>
<path d="M1583 969 c-70 -13 -130 -45 -186 -98 -195 -185 -143 -505 101 -619
50 -24 69 -27 162 -27 96 0 110 3 159 28 155 82 241 245 212 403 -29 154 -136
269 -286 308 -64 17 -97 18 -162 5z m155 -239 c101 -62 96 -219 -8 -273 -75
-39 -179 -6 -214 67 -52 110 19 226 139 226 32 0 62 -7 83 -20z"/>
<path d="M1086 538 c-2 -7 -9 -35 -15 -63 -50 -214 -255 -375 -476 -375 -144
0 -269 53 -365 156 -55 59 -120 172 -120 208 0 11 -9 16 -27 16 -16 0 -40 7
-55 14 l-28 15 0 -255 0 -254 561 0 561 0 -18 28 c-9 15 -39 58 -66 96 -26 38
-48 73 -48 77 0 8 124 109 134 109 8 0 136 -102 136 -108 0 -2 -29 -46 -65
-98 -36 -52 -65 -96 -65 -99 0 -3 252 -5 560 -5 l560 0 0 262 c0 216 -2 259
-13 244 -7 -9 -31 -20 -54 -23 -40 -5 -42 -7 -62 -63 -45 -123 -153 -233 -282
-287 -58 -25 -76 -27 -184 -27 -102 0 -128 3 -174 22 -162 68 -281 207 -313
367 -10 54 -12 55 -45 55 -18 0 -35 -6 -37 -12z"/>
</g>
</svg>
